[Header]
FileType HTR
DataType HTRS
FileVersion 1
NumSegments 22
NumFrames 5
DataFrameRate 24
EulerRotationOrder ZYX
CalibrationUnits mm
RotationUnits Degrees
GlobalAxisofGravity Y
BoneLengthAxis Y
ScaleFactor 1.0
[SegmentNames&Hierarchy]
reference	GLOBAL
Hips	reference
Spine	Hips
Spine1	Spine
Neck	Spine1
Head	Neck
LeftShoulder	Spine1
LeftArm	LeftShoulder
LeftForeArm	LeftArm
LeftHand	LeftForeArm
RightShoulder	Spine1
RightArm	RightShoulder
RightForeArm	RightArm
RightHand	RightForeArm
LeftUpLeg	Hips
LeftLeg	LeftUpLeg
LeftFoot	LeftLeg
LeftToeBase	LeftFoot
RightUpLeg	Hips
RightLeg	RightUpLeg
RightFoot	RightLeg
RightToeBase	RightFoot
[BasePosition]
reference	0	0	0	0	0	0	1
Hips	0	0	0	0	0	0	1
Spine	0	0	0	0	-0	90	1
Spine1	0	0	0	0	0	0	1
Neck	0	0	0	-7.352430803	-7.352430803	90	1
Head	0	0	0	0	-0	90	1
LeftShoulder	0	0	0	0	0	0	1
LeftArm	0	0	0	0	0	0	1
LeftForeArm	0	0	0	0	0	0	1
LeftHand	0	0	0	0	0	0	1
RightShoulder	0	0	0	0	-0	180	1
RightArm	0	0	0	0	-0	180	1
RightForeArm	0	0	0	0	-0	180	1
RightHand	0	0	0	0	-0	180	1
LeftUpLeg	0	0	0	0	-0	-90	1
LeftLeg	0	0	0	0	-0	-90	1
LeftFoot	0	0	0	66.57150701	-66.57150701	-90	1
LeftToeBase	0	0	0	0	-90	0	1
RightUpLeg	0	0	0	0	-0	-90	1
RightLeg	0	0	0	0	-0	-90	1
RightFoot	0	0	0	66.57150701	-66.57150701	-90	1
RightToeBase	0	0	0	0	-90	0	1
[reference]
10	0	0	0	0	-0	0	1.0
11	0	0	0	0	-0	0	1.0
12	0	0	0	0	-0	0	1.0
13	0	0	0	0	-0	0	1.0
14	0	0	0	0	-0	0	1.0
[Hips]
10	1.271830082	8.630839348	0.1117490306	176.5432739	-95.85700989	-178.8118591	1.0
11	1.302650452	8.592310905	0.1411818415	176.9111633	-96.63021088	-179.5982208	1.0
12	1.341297865	8.556787491	0.1553323865	177.0272217	-97.17301941	-180.0673523	1.0
13	1.386629939	8.53308773	0.1667214036	173.2729034	-97.27056122	-176.3714447	1.0
14	1.46035552	8.516093254	0.1759699881	167.0647888	-97.07417297	-169.7192383	1.0
[Spine]
10	0	0.7478299737	0	-6.980176926	-0.2518401146	-88.98204041	1.0
11	0	0.7478299737	0	-6.055989265	-0.1957711279	-88.74404907	1.0
12	0	0.7478299737	0	-5.017240047	0.183694765	-88.67675781	1.0
13	0	0.7478299737	0	-4.120446682	1.020354271	-89.3420105	1.0
14	0	0.7478299737	0	-3.44726181	2.240975618	-90.16889954	1.0
[Spine1]
10	0	2.049309969	0	10.21551991	-0.05613885447	-0.602088809	1.0
11	0	2.049309969	0	9.992645264	-0.02704063989	-0.7206816077	1.0
12	0	2.049309969	0	9.697559357	0.1023968309	-0.7304970026	1.0
13	0	2.049309969	0	9.530446053	0.3834525943	-0.6140210629	1.0
14	0	2.049309969	0	9.232419014	0.8087056279	-0.7108581662	1.0
[Neck]
10	0	2.231709957	0	-6.132386208	14.42006302	-85.34553528	1.0
11	0	2.231709957	0	-6.702372551	14.14381027	-85.17474365	1.0
12	0	2.231709957	0	-7.097085953	14.02945805	-85.27800751	1.0
13	0	2.231709957	0	-8.480312347	13.62226486	-84.53386688	1.0
14	0	2.231709957	0	-9.790374756	13.322052	-85.53569031	1.0
[Head]
10	0	1.413589954	0.1823999882	-9.177293777	7.565726757	-96.33531952	1.0
11	0	1.413589954	0.1823999882	-8.871977806	7.279136658	-96.1452713	1.0
12	0	1.413589954	0.1823999882	-9.573233604	7.080768585	-95.69915771	1.0
13	0	1.413589954	0.1823999882	-8.535241127	6.685596466	-95.84840393	1.0
14	0	1.413589954	0.1823999882	-9.029379845	6.195947647	-93.47860718	1.0
[LeftShoulder]
10	0.3649300039	1.825889945	-0.04271000251	-11.9302969	-7.55909586	2.941381454	1.0
11	0.3649300039	1.825889945	-0.04271000251	-11.77239704	-7.523318768	2.986280203	1.0
12	0.3649300039	1.825889945	-0.04271000251	-11.70291615	-7.415425301	3.15991807	1.0
13	0.3649300039	1.825889945	-0.04271000251	-11.55797863	-7.380249977	3.290935516	1.0
14	0.3649300039	1.825889945	-0.04271000251	-11.72589302	-7.285859585	3.686159611	1.0
[LeftArm]
10	1.24003005	0	0	39.23510742	8.416391373	-81.26937866	1.0
11	1.24003005	0	0	38.5670166	8.444933891	-80.85145569	1.0
12	1.24003005	0	0	37.34705353	8.681717873	-80.52557373	1.0
13	1.24003005	0	0	35.3894577	8.956745148	-79.97887421	1.0
14	1.24003005	0	0	32.10110474	9.878529549	-79.24681854	1.0
[LeftForeArm]
10	2.847419977	0	0	-11.13044071	-14.43686676	-4.263010979	1.0
11	2.847419977	0	0	-10.55056286	-15.03279209	-4.487761497	1.0
12	2.847419977	0	0	-9.896772385	-15.73921108	-4.801886082	1.0
13	2.847419977	0	0	-9.210849762	-16.35233879	-5.372732639	1.0
14	2.847419977	0	0	-7.53410244	-16.83478165	-7.042439938	1.0
[LeftHand]
10	2.258270025	0	0	-11.54808998	-5.103254318	-2.752815962	1.0
11	2.258270025	0	0	-11.02185154	-5.266143322	-2.639834404	1.0
12	2.258270025	0	0	-10.45731068	-5.260318756	-2.258033276	1.0
13	2.258270025	0	0	-9.877562523	-5.599565029	-2.167226076	1.0
14	2.258270025	0	0	-8.52315712	-5.987347603	-1.044085741	1.0
[RightShoulder]
10	-0.3646599948	1.825889945	-0.04271000251	-8.107280731	7.012424469	178.1612549	1.0
11	-0.3646599948	1.825889945	-0.04271000251	-8.202620506	7.294481277	178.1534729	1.0
12	-0.3646599948	1.825889945	-0.04271000251	-8.089605331	7.40730381	178.1194	1.0
13	-0.3646599948	1.825889945	-0.04271000251	-7.845621109	7.785957813	178.2828522	1.0
14	-0.3646599948	1.825889945	-0.04271000251	-8.48876667	8.295633316	178.2588196	1.0
[RightArm]
10	-1.24003005	0	0	46.5490799	-4.082658768	-98.02913666	1.0
11	-1.24003005	0	0	46.89063263	-4.059247971	-98.25695801	1.0
12	-1.24003005	0	0	47.4569664	-3.572986364	-98.57032013	1.0
13	-1.24003005	0	0	48.90365219	-2.700696945	-99.06606293	1.0
14	-1.24003005	0	0	51.23646927	-2.306361675	-99.05705261	1.0
[RightForeArm]
10	-2.847419977	0	0	1.143884659	13.31880856	179.0890503	1.0
11	-2.847419977	0	0	0.7872776985	13.85579109	178.7969971	1.0
12	-2.847419977	0	0	0.9137759209	14.50093174	178.8489227	1.0
13	-2.847419977	0	0	1.30606842	15.37435055	178.9688416	1.0
14	-2.847419977	0	0	2.076796293	16.24648285	179.0116577	1.0
[RightHand]
10	-2.258270025	0	0	1.048025966	7.138605118	176.7578125	1.0
11	-2.258270025	0	0	0.7355238199	7.316051483	176.9025116	1.0
12	-2.258270025	0	0	0.8494592905	7.461580276	176.7701416	1.0
13	-2.258270025	0	0	1.213067293	7.439977646	176.4298248	1.0
14	-2.258270025	0	0	1.882138014	7.431770802	174.8197327	1.0
[LeftUpLeg]
10	0.9119900465	0	0	-0.5489948392	-5.694352627	88.93080139	1.0
11	0.9119900465	0	0	-2.429726362	-5.825110435	88.51700592	1.0
12	0.9119900465	0	0	-4.54172039	-6.108556271	88.23690033	1.0
13	0.9119900465	0	0	-6.604270935	-6.478246212	88.23122406	1.0
14	0.9119900465	0	0	-8.653711319	-5.786659241	87.94274902	1.0
[LeftLeg]
10	0	-4.371409893	0	18.64750099	-11.77687836	85.97724915	1.0
11	0	-4.371409893	0	22.80629539	-10.55496788	85.39203644	1.0
12	0	-4.371409893	0	27.44776726	-10.47435379	84.20249939	1.0
13	0	-4.371409893	0	31.57261658	-11.62684631	80.93868256	1.0
14	0	-4.371409893	0	34.27875519	-13.03726196	77.95124817	1.0
[LeftFoot]
10	0	-3.918009996	0	-102.8475266	109.8951721	-49.6150589	1.0
11	0	-3.918009996	0	-104.8877563	110.2620087	-51.03916168	1.0
12	0	-3.918009996	0	-105.2971802	110.6956253	-50.48573685	1.0
13	0	-3.918009996	0	-101.3151245	111.9384232	-44.88754272	1.0
14	0	-3.918009996	0	-98.47216797	113.4698029	-40.74324799	1.0
[LeftToeBase]
10	0	-0.5927900076	1.367989898	0	0	0	1.0
11	0	-0.5927900076	1.367989898	0	0	0	1.0
12	0	-0.5927900076	1.367989898	0	0	0	1.0
13	0	-0.5927900076	1.367989898	0	0	0	1.0
14	0	-0.5927900076	1.367989898	0	0	0	1.0
[RightUpLeg]
10	-0.9119900465	0	0	6.225186825	-6.236447334	91.47114563	1.0
11	-0.9119900465	0	0	4.29652071	-7.256807327	91.99089813	1.0
12	-0.9119900465	0	0	1.534574628	-7.811179638	92.66014099	1.0
13	-0.9119900465	0	0	-1.994264722	-7.424091816	92.69817352	1.0
14	-0.9119900465	0	0	-5.843492031	-8.328365326	92.34455109	1.0
[RightLeg]
10	0	-4.371409893	0	9.403915405	2.154847145	89.02416992	1.0
11	0	-4.371409893	0	13.93934441	2.279815197	87.42572021	1.0
12	0	-4.371409893	0	19.90824699	2.717904091	85.57626343	1.0
13	0	-4.371409893	0	26.7457428	2.658163786	84.31704712	1.0
14	0	-4.371409893	0	32.83038712	5.123657227	84.17869568	1.0
[RightFoot]
10	0	-3.918009996	0	22.68540955	60.9365387	68.83850098	1.0
11	0	-3.918009996	0	23.01544762	60.23523712	71.13090515	1.0
12	0	-3.918009996	0	23.33626938	59.07366562	73.7265625	1.0
13	0	-3.918009996	0	22.63921928	58.03986359	75.46352386	1.0
14	0	-3.918009996	0	20.82033348	56.71121597	75.41503906	1.0
[RightToeBase]
10	0	-0.5927900076	1.367989898	0	0	0	1.0
11	0	-0.5927900076	1.367989898	0	0	0	1.0
12	0	-0.5927900076	1.367989898	0	0	0	1.0
13	0	-0.5927900076	1.367989898	0	0	0	1.0
14	0	-0.5927900076	1.367989898	0	0	0	1.0
[EndOfFile]
